<svg version="1.2" xmlns="http://www.w3.org/2000/svg" viewBox="0 0 1080 1080" width="1080" height="1080">
	<title>fav-svg</title>
	<style>
		.s0 { fill: #101010 } 
		.s1 { fill: #55e6a5 } 
	</style>
	<path id="Layer" class="s0" d="m540 1068.8c-292.4 0-528.8-236.4-528.8-528.8c0-292.4 236.4-528.8 528.8-528.8c292.4 0 528.8 236.4 528.8 528.8c0 292.4-236.4 528.8-528.8 528.8z" />
	<path id="Layer" class="s1" d="m614 296.7v484c0 13.5-4.9 24.7-14 34.1c-4.5 4.5-9.9 8-15.7 10.4c-5.9 2.4-12.1 3.7-18.5 3.7c-6.3 0-12.6-1.3-18.4-3.7c-5.9-2.4-11.2-5.9-15.7-10.4c-9.5-9.4-14-20.6-14-34.1v-368.2l-84.3 82q-3.3 3.3-7.2 5.8q-4 2.5-8.3 4.2q-4.3 1.7-8.8 2.5q-4.6 0.8-9.3 0.7h-1.1c-13.2-0.3-24.6-5.1-33.5-14.3q-3.4-3.5-6-7.5q-2.6-4-4.4-8.5q-1.7-4.4-2.6-9.2q-0.9-4.7-0.8-9.5q0-4.7 1-9.4q1-4.6 3-8.9q1.9-4.4 4.7-8.2q2.7-3.8 6.2-7l166-160.6l0.6-0.6l0.8-0.3l0.3-0.6h0.3l0.6-1.1h0.3l0.8-0.3q0.5-0.4 0.9-0.8c1.7-1.5 3.7-2.6 5.4-4l1.8-0.3l0.8-0.6l1.2-0.3h0.3l0.8-0.8h0.8l0.3-0.3h0.6l0.2-0.6h0.6l1.2-0.3h0.8c0.3-0.3 0.6-0.3 1.2-0.3q1.2-0.4 2.4-0.8q1.3-0.3 2.5-0.6q1.3-0.3 2.5-0.5q1.3-0.2 2.6-0.4h3.1l2.9 0.6h3.4l0.9 0.3q0.9 0.1 1.7 0.2q0.9 0.2 1.8 0.4q0.8 0.2 1.7 0.5q0.8 0.3 1.7 0.6q0.3 0.1 0.5 0.1q0.3 0.1 0.6 0.1q0.3 0.1 0.6 0.1q0.3 0 0.6 0v0.6h0.8l0.9 0.3h0.3l0.8 0.8l1.2 0.3q1.2 0.6 2.3 1.2q1.2 0.6 2.3 1.4q1.1 0.7 2.2 1.5q1.1 0.8 2.1 1.6l0.8 0.3h0.3l0.6 0.9l0.9 0.8l0.5 0.3l1.5 1.5v0.2l0.2 0.3l0.9 0.6l0.3 0.3l0.6 0.9l0.2 0.2l0.3 0.6v0.3l1.5 0.3q-0.1 0.2-0.1 0.4q0.1 0.1 0.1 0.3q0 0.2 0.1 0.4q0.1 0.2 0.2 0.3q0.6 0.7 1.1 1.4q0.6 0.7 1.1 1.5q0.5 0.7 0.9 1.5q0.5 0.8 0.9 1.6l0.2 1.2l0.6 0.8l0.3 1.2l0.6 0.3v0.8l0.6 0.3v0.9l0.5 0.5v0.6l0.3 1.5l0.6 0.5v0.9q0.3 1.3 0.7 2.6q0.3 1.3 0.5 2.7q0.3 1.3 0.5 2.6q0.2 1.4 0.4 2.7z" />
</svg>