<?xml version="1.0" standalone="no"?>
<!DOCTYPE svg PUBLIC "-//W3C//DTD SVG 20010904//EN"
 "http://www.w3.org/TR/2001/REC-SVG-20010904/DTD/svg10.dtd">
<svg version="1.0" xmlns="http://www.w3.org/2000/svg"
 width="200.000000pt" height="200.000000pt" viewBox="0 0 200.000000 200.000000"
 preserveAspectRatio="xMidYMid meet">

<g transform="translate(0.000000,200.000000) scale(0.100000,-0.100000)"
fill="#55e6a5" stroke="none">
<path d="M976 1763 c-3 -42 -6 -92 -6 -113 l0 -36 -87 -13 c-142 -20 -272 -78
-383 -171 l-45 -38 -28 20 c-40 29 -97 34 -142 12 -93 -44 -101 -168 -16 -236
l30 -23 -24 -70 c-63 -188 -49 -399 40 -574 96 -192 265 -332 470 -391 352
-101 737 77 891 414 48 106 67 207 62 340 -8 202 -67 340 -207 488 -126 134
-282 212 -463 233 l-56 7 -7 114 c-4 63 -11 114 -15 114 -4 0 -10 -34 -14 -77z
m24 -170 c0 -36 -4 -63 -10 -63 -6 0 -10 32 -10 78 0 53 3 72 10 62 5 -8 10
-43 10 -77z m-54 -65 c-13 -8 -16 -32 -16 -153 l0 -144 -30 -16 -30 -16 0
-155 0 -154 -25 -10 -25 -10 0 -159 0 -159 -25 -6 -25 -6 -2 -163 -3 -162 -27
-3 c-18 -2 -28 -10 -30 -23 -3 -20 -5 -19 -55 8 -187 100 -312 251 -375 453
-20 64 -23 95 -22 210 0 117 4 145 26 210 18 54 29 74 39 70 21 -7 239 -12
265 -6 12 3 27 19 34 36 10 25 10 34 -4 55 -10 15 -26 25 -40 25 -14 0 -30 10
-40 24 -8 14 -24 27 -34 30 -10 4 -24 22 -29 41 -11 35 -11 36 44 80 108 88
248 149 375 163 l63 7 3 -29 c2 -19 -2 -32 -12 -38z m280 27 c314 -105 521
-413 501 -740 -7 -110 -27 -187 -73 -282 -65 -137 -182 -258 -316 -328 l-68
-36 0 85 0 85 -27 3 -28 3 -3 182 c-2 179 -3 182 -25 185 -22 3 -22 6 -25 181
l-2 178 -25 9 -25 10 0 154 0 155 -30 16 c-26 14 -30 21 -30 60 0 26 -5 47
-14 52 -7 4 -15 21 -18 37 l-6 29 68 -6 c37 -3 103 -18 146 -32z m-192 -51 c3
-9 6 -27 6 -41 0 -26 0 -26 -47 -6 -10 4 -13 -19 -13 -94 0 -93 -8 -123 -32
-123 -10 0 -11 264 -1 273 14 14 81 7 87 -9z m54 -257 l3 -148 -26 7 -25 6 0
-496 c0 -489 0 -496 -20 -496 -20 0 -20 7 -20 661 l0 660 43 -23 42 -23 3
-148z m-670 151 c44 -34 59 -88 24 -88 -10 0 -28 -9 -40 -20 -12 -11 -29 -20
-39 -20 -25 0 -63 -28 -63 -45 0 -23 -20 -28 -40 -10 -44 40 -50 114 -12 163
37 47 123 57 170 20z m102 -128 c15 -16 37 -30 47 -30 41 0 58 -53 27 -84 -12
-13 -39 -16 -127 -16 -127 0 -157 11 -157 59 0 34 16 51 49 51 15 0 37 12 50
25 33 35 75 33 111 -5z m460 -590 c0 -553 0 -560 -20 -560 -20 0 -20 7 -20
396 l0 396 -25 -6 -26 -7 3 148 3 147 40 23 c22 12 41 23 43 23 1 0 2 -252 2
-560z m130 394 l40 -16 0 -170 0 -170 -30 6 -30 6 0 -305 c0 -298 0 -305 -20
-305 -20 0 -20 7 -20 485 0 310 4 485 10 485 5 0 28 -7 50 -16z m-180 -569 c0
-378 0 -385 -20 -385 -19 0 -20 7 -20 220 l0 220 -30 0 -30 0 0 149 0 149 38
15 c20 9 43 16 50 16 9 1 12 -82 12 -384z m248 195 c22 0 22 0 22 -180 l0
-180 -25 0 c-24 0 -24 -1 -27 -102 -3 -89 -5 -103 -20 -106 -17 -3 -18 16 -18
288 l0 292 23 -6 c12 -3 32 -6 45 -6z m-308 -365 c0 -198 -1 -205 -20 -205
-17 0 -20 7 -20 40 0 36 -2 40 -25 40 l-25 0 0 159 c0 175 -3 167 63 170 l27
1 0 -205z m380 -89 l0 -84 -31 -11 c-58 -20 -59 -19 -59 84 l0 95 45 0 45 0 0
-84z m-430 -76 c0 -33 -9 -36 -59 -19 -20 7 -31 18 -31 30 0 16 7 19 45 19 43
0 45 -1 45 -30z"/>
<path d="M1458 968 c-34 -22 -48 -38 -48 -54 0 -33 28 -44 113 -44 59 0 77 4
90 18 31 35 20 56 -50 95 -42 23 -50 22 -105 -15z m98 -3 c4 -8 14 -15 24 -15
28 0 45 -27 30 -45 -18 -22 -175 -22 -184 1 -8 21 1 34 24 34 11 0 24 9 30 20
13 24 68 28 76 5z"/>
</g>
</svg>
