<svg xmlns="http://www.w3.org/2000/svg" viewBox="0 0 97.95 95.78"><defs><style>.cls-1{fill:#55e6a5;}.cls-2{fill:#373f54;}</style></defs><g id="Layer_2" data-name="Layer 2"><g id="Layer_2-2" data-name="Layer 2"><path class="cls-1" d="M86.65,39.87V57.21L85.43,56l-1.35,1.34a2.57,2.57,0,0,1-3.22.36,15.48,15.48,0,0,0-4.88-2,2.6,2.6,0,0,1-2-2.55V51.28H71.05v1.9a2.6,2.6,0,0,1-2,2.54,15.57,15.57,0,0,0-4.81,2A2.61,2.61,0,0,1,61,57.38l-1.34-1.33-2,2L59,59.44a2.6,2.6,0,0,1,.36,3.23,15.53,15.53,0,0,0-2,4.78,2.59,2.59,0,0,1-2.54,2h-1.9v2.88h1.9a2.61,2.61,0,0,1,2.55,2,14.7,14.7,0,0,0,1.11,3.19H24.69a8.62,8.62,0,0,1-8.64-8.64V39.87Z"/><path class="cls-1" d="M16.42,14.49H88a0,0,0,0,1,0,0V27.84a0,0,0,0,1,0,0H29.77A13.35,13.35,0,0,1,16.42,14.49v0A0,0,0,0,1,16.42,14.49Z"/><path class="cls-1" d="M84.83,70.92A12.3,12.3,0,0,1,72.56,83.19a12.28,12.28,0,0,1-10.3-5.61,12.15,12.15,0,0,1-2-6.66,12.28,12.28,0,0,1,24.55,0Z"/><path class="cls-2" d="M18.26,11A7.06,7.06,0,1,0,25.33,18,7.07,7.07,0,0,0,18.26,11Zm0,8.9A1.84,1.84,0,1,1,20.11,18,1.84,1.84,0,0,1,18.26,19.86Z"/><path class="cls-2" d="M73.72,11H57a7.06,7.06,0,0,0,0,14.12H73.72a7.06,7.06,0,1,0,0-14.12Zm0,8.9H57a1.84,1.84,0,1,1,0-3.67H73.72a1.84,1.84,0,1,1,0,3.67Z"/><path class="cls-2" d="M34.7,11A7.06,7.06,0,1,0,41.77,18,7.07,7.07,0,0,0,34.7,11Zm0,8.9A1.84,1.84,0,1,1,36.54,18,1.84,1.84,0,0,1,34.7,19.86Z"/><path class="cls-2" d="M31.78,42.32a2.61,2.61,0,0,0-3.14,1.94L24.89,60a2.61,2.61,0,0,0,1.93,3.15,3.08,3.08,0,0,0,.61.07,2.59,2.59,0,0,0,2.53-2l3.75-15.7A2.61,2.61,0,0,0,31.78,42.32Z"/><path class="cls-2" d="M38.08,61.09a2.58,2.58,0,0,0,1.73.66,2.61,2.61,0,0,0,1.95-.87l5.3-6a3.35,3.35,0,0,0,0-4.43l-5.31-6A2.61,2.61,0,0,0,37.86,48L42,52.71,37.86,57.4A2.62,2.62,0,0,0,38.08,61.09Z"/><path class="cls-2" d="M20.52,44.33a2.61,2.61,0,0,0-3.68.21l-5.3,6a3.35,3.35,0,0,0,0,4.43l5.31,6a2.61,2.61,0,0,0,1.95.87,2.61,2.61,0,0,0,2.6-2.46,2.64,2.64,0,0,0-.65-1.89l-4.18-4.69L20.74,48A2.62,2.62,0,0,0,20.52,44.33Z"/><path class="cls-2" d="M96,65.71a4.86,4.86,0,0,0-.6-.52,4.91,4.91,0,0,0-2.9-.93h-.18a21.7,21.7,0,0,0-1.07-2.59l.13-.13a4.88,4.88,0,0,0,1.1-1.64A5.26,5.26,0,0,0,92.81,58a4.94,4.94,0,0,0-1.46-3.51l-.76-.76v-40c0-6-4.3-11-9.59-11H9.59C4.3,2.85,0,7.76,0,13.8V66.64c0,6,4.3,11,9.59,11H20.68a2.62,2.62,0,0,0,0-5.23H9.59c-2.37,0-4.37-2.62-4.37-5.72V33.06H85.37V50.67a4.88,4.88,0,0,0-3.43,1.45l-.15.13a20.75,20.75,0,0,0-2.63-1.08V51a5,5,0,0,0-5-5H70.78a5,5,0,0,0-5,5v.2a19.63,19.63,0,0,0-2.55,1.07l-.12-.12a5,5,0,0,0-7,0l-2.42,2.41a5,5,0,0,0-1.45,3.51,4.92,4.92,0,0,0,1.45,3.49l.15.16a20.48,20.48,0,0,0-1,2.52h-.2a5,5,0,0,0-5,4.95v3.15H37.43a2.61,2.61,0,0,0,0,5.22H52.84a21.07,21.07,0,0,0,1.06,2.55l-.14.14a5,5,0,0,0,0,7l2.41,2.41a4.95,4.95,0,0,0,7,0l.14-.14a20.31,20.31,0,0,0,2.56,1.06v.21a5,5,0,0,0,5,5h3.43a5,5,0,0,0,5-5v-.2a21.41,21.41,0,0,0,2.57-1.07l.14.13a4.88,4.88,0,0,0,3.5,1.46,5,5,0,0,0,3.51-1.45l2.41-2.42a4.87,4.87,0,0,0,1.45-3.5,5.05,5.05,0,0,0-.15-1.23,4.9,4.9,0,0,0-1.3-2.28l-.13-.13a21.07,21.07,0,0,0,1.06-2.55h.19a5,5,0,0,0,5-5V69.21A4.9,4.9,0,0,0,96,65.71ZM5.22,27.84v-14c0-3.1,2-5.73,4.37-5.73H81c2.37,0,4.37,2.63,4.37,5.73v14Zm87,44.52h-1.9a2.61,2.61,0,0,0-2.55,2,14.7,14.7,0,0,1-1.11,3.19,16.75,16.75,0,0,1-.88,1.61,2.62,2.62,0,0,0,.36,3.24l1.34,1.34-2,2-1.35-1.35a2.6,2.6,0,0,0-3.23-.36,15.24,15.24,0,0,1-4.82,2,2.59,2.59,0,0,0-2,2.55v1.91H71.11v-2a2.61,2.61,0,0,0-2-2.46,15.23,15.23,0,0,1-4.2-1.62c-.21-.12-.42-.24-.62-.37a2.58,2.58,0,0,0-1.38-.4,2.63,2.63,0,0,0-1.85.77l-1.34,1.34-2-2L59,82.43a2.6,2.6,0,0,0,.37-3.24,14.9,14.9,0,0,1-.89-1.61,14.7,14.7,0,0,1-1.11-3.19,2.61,2.61,0,0,0-2.55-2h-1.9V69.48h1.9a2.59,2.59,0,0,0,2.54-2,15.53,15.53,0,0,1,2-4.78A2.6,2.6,0,0,0,59,59.44L57.6,58.09l2-2L61,57.38a2.61,2.61,0,0,0,3.24.36,15.61,15.61,0,0,1,3-1.49,16.14,16.14,0,0,1,1.8-.53,2.61,2.61,0,0,0,1.78-1.44,2.72,2.72,0,0,0,.24-1.1v-1.9h2.89v2a2.6,2.6,0,0,0,2,2.42,15.48,15.48,0,0,1,4.88,2,2.57,2.57,0,0,0,3.22-.36L85.43,56l2,2-.82.82-.52.52a2.6,2.6,0,0,0-.36,3.24,14.68,14.68,0,0,1,.88,1.6,15.83,15.83,0,0,1,1.12,3.23,2.6,2.6,0,0,0,2.55,2h1.89Z"/><path class="cls-1" d="M90.32,69.48a2.6,2.6,0,0,1-2.55-2,15.83,15.83,0,0,0-1.12-3.23,14.68,14.68,0,0,0-.88-1.6,2.6,2.6,0,0,1,.36-3.24l.52-.52.82-.82-2-2-1.35,1.34a2.57,2.57,0,0,1-3.22.36,15.48,15.48,0,0,0-4.88-2,2.6,2.6,0,0,1-2-2.42,18.42,18.42,0,0,0-3.13,1A2.61,2.61,0,0,1,69,55.72a16.14,16.14,0,0,0-1.8.53,18.5,18.5,0,0,0-2.35,28.22,15.23,15.23,0,0,0,4.2,1.62,2.61,2.61,0,0,1,2,2.46,17.28,17.28,0,0,0,2.89.88v-.78a2.59,2.59,0,0,1,2-2.55,15.24,15.24,0,0,0,4.82-2,2.6,2.6,0,0,1,3.23.36l1.35,1.35,2-2-1.34-1.34a2.62,2.62,0,0,1-.36-3.24,16.75,16.75,0,0,0,.88-1.61,14.7,14.7,0,0,0,1.11-3.19,2.61,2.61,0,0,1,2.55-2h1.9V69.48Zm-7.47,8.1a12.25,12.25,0,1,1,2-6.66A12.25,12.25,0,0,1,82.85,77.58Z"/><path class="cls-2" d="M72.56,58.65A12.29,12.29,0,0,0,60.28,70.92a12.15,12.15,0,0,0,2,6.66,12.25,12.25,0,0,0,20.59,0,12.15,12.15,0,0,0,2-6.66A12.29,12.29,0,0,0,72.56,58.65Zm2.28,18.93a7.06,7.06,0,0,1-4.57,0,7.06,7.06,0,1,1,4.57,0Z"/><path class="cls-2" d="M29.11,72.36h0a2.61,2.61,0,0,0,0,5.22h0a2.61,2.61,0,0,0,0-5.22Z"/><circle class="cls-1" cx="38.35" cy="86.91" r="3.65"/><circle class="cls-1" cx="30.06" cy="88.4" r="2.16"/><circle class="cls-1" cx="1.66" cy="81.59" r="1.66"/><circle class="cls-1" cx="94.16" cy="3.8" r="3.8"/></g></g></svg>