<svg xmlns="http://www.w3.org/2000/svg" viewBox="0 0 77.87 77.87"><defs><style>.cls-1{fill:#55e6a5;}.cls-2{fill:#373f54;}</style></defs><g id="Layer_2" data-name="Layer 2"><g id="Layer_1-2" data-name="Layer 1"><path class="cls-1" d="M70,13.76V54c0,2.22-1.23,2.88-2.25,3.06h-59A2.8,2.8,0,0,0,6,59.85H6a1.73,1.73,0,0,0,1.74,1.73H69.41a1.75,1.75,0,0,0,1.11-.4,1.18,1.18,0,0,0,.75.26h3.3V13.76Z"/><path class="cls-1" d="M23,27.38h16.5A25.25,25.25,0,0,1,64.72,52.63v0a0,0,0,0,1,0,0H23a0,0,0,0,1,0,0V27.38A0,0,0,0,1,23,27.38Z" transform="translate(87.68 80.01) rotate(180)"/><path class="cls-1" d="M24.14,11.58V7H65.89V20.38H31a6.81,6.81,0,0,1-6.59-5Z"/><path class="cls-2" d="M77.86,11.25a2.27,2.27,0,0,0-2.27-2.13H68.75V2.28s0-.1,0-.15A2.29,2.29,0,0,0,66.46,0h-55A2.28,2.28,0,0,0,9.13,2.28V9.12H2.28A2.29,2.29,0,0,0,0,11.41V61.6a2.28,2.28,0,0,0,2.28,2.28H27.53v9.43H20.68a2.28,2.28,0,0,0,0,4.56H57.19a2.28,2.28,0,0,0,2.28-2.28.76.76,0,0,0,0-.15,2.28,2.28,0,0,0-2.27-2.13H50.34V63.88H75.59a2.28,2.28,0,0,0,2.28-2.28V11.41A.86.86,0,0,0,77.86,11.25Zm-13.68,7H13.69V4.56H64.18ZM13.69,22.81H64.18V50.19H13.69ZM4.56,13.69H9.13V52.47a2.28,2.28,0,0,0,2.28,2.28H66.46a2.29,2.29,0,0,0,2.29-2.28V13.69h4.56V59.32H4.56ZM32.09,63.88H45.78v9.43H32.09Z"/><circle class="cls-2" cx="20.68" cy="11.41" r="2.28"/><circle class="cls-2" cx="29.81" cy="11.41" r="2.28"/><circle class="cls-2" cx="38.94" cy="11.41" r="2.28"/><path class="cls-2" d="M59.39,42.76a2.33,2.33,0,0,0-.59-1l-2.95-2.95,2.95-3a2.28,2.28,0,0,0-.89-3.77L44.22,27.49a2.28,2.28,0,0,0-2.89,2.89L45.9,44.07a2.13,2.13,0,0,0,.61.94,2.25,2.25,0,0,0,1.55.62A2.28,2.28,0,0,0,49.67,45l2.95-3,3,3a2.28,2.28,0,0,0,3.82-2.2ZM49.06,39.12l-2-5.86,5.85,2-.66.66-3,3Z"/><path class="cls-2" d="M34.37,27.38H20.68a2.28,2.28,0,0,0,0,4.56H34.37a2.28,2.28,0,0,0,0-4.56Z"/><path class="cls-2" d="M34.37,36.5H20.68a2.28,2.28,0,0,0,0,4.56H34.37a2.28,2.28,0,1,0,0-4.56Z"/><circle class="cls-1" cx="6.25" cy="70.36" r="2.95"/><circle class="cls-1" cx="12" cy="69.06" r="1.3"/></g></g></svg>