<?xml version="1.0" encoding="UTF-8"?>
<svg id="Layer_2" data-name="Layer 2" xmlns="http://www.w3.org/2000/svg" viewBox="0 0 74.24 80">
  <defs>
    <style>
      .cls-1 {
        fill: #373f54;
      }

      .cls-2 {
        fill: #55e6a5;
      }
    </style>
  </defs>
  <g id="Layer_1-2" data-name="Layer 1">
    <g>
      <path class="cls-2" d="M48.39,22.08l3.15,2.33-3.4,4.15c-1.4-1.04-2.61-1.93-4.01-2.97,.21-.32,1.53-2.29,2.35-3.51H18.95c-3.13,0-5.67,2.54-5.67,5.68V60.96h57.83V22.08h-22.72Zm-1.28,9.6c.82,2.39,.51,4.74-1.57,6.2-2.44,1.71-7.02-.62-11.39,1.71-1.07-5.54-.39-10.75,5.16-11.9,.71-.14,1.49-.21,2.14-.2,1.88,1.39,3.78,2.8,5.66,4.19Z"/>
      <g>
        <path class="cls-1" d="M67.93,10.41h-.95c1.81-2.95,1.14-6.9-1.76-9.06-3.13-2.32-7.58-1.57-9.76,1.69l-4.93,7.37H8.18c-3.48,0-6.31,2.83-6.31,6.31V57.08c0,3.48,2.83,6.31,6.31,6.31h24.52l-1.85,7.78h-4c-2.6,0-4.72,2.12-4.72,4.72v.99h-4.93c-.87,0-1.57,.7-1.57,1.56s.7,1.56,1.57,1.56H58.92c.86,0,1.56-.69,1.56-1.56s-.7-1.56-1.56-1.56h-4.93v-.99c0-2.6-2.12-4.72-4.73-4.72h-4l-1.85-7.78h24.52c3.48,0,6.31-2.83,6.31-6.31V16.72c0-3.48-2.83-6.31-6.31-6.31Zm-9.88-5.63c1.19-1.77,3.6-2.18,5.3-.92,1.71,1.27,2.01,3.7,.66,5.34-2.39,2.92-8.09,9.86-10.49,12.79l-4.67-3.46,9.2-13.75Zm-6.51,19.63l-3.4,4.15c-1.4-1.04-2.61-1.93-4.01-2.97,.21-.32,1.53-2.29,2.35-3.51,.32-.48,.56-.84,.63-.95l1.28,.95,3.15,2.33Zm-6,13.47c-2.44,1.71-7.02-.62-11.39,1.71-1.07-5.54-.39-10.75,5.16-11.9,.71-.14,1.49-.21,2.14-.2,1.88,1.39,3.78,2.8,5.66,4.19,.82,2.39,.51,4.74-1.57,6.2Zm-3.49,33.29h-7.99l1.85-7.78h4.29l1.85,7.78Zm7.21,3.12c.88,0,1.6,.72,1.6,1.6v.99H25.25v-.99c0-.88,.72-1.6,1.6-1.6h22.41Zm21.85-27.66H21.96c-.86,0-1.56,.7-1.56,1.57s.7,1.56,1.56,1.56h49.15v7.32c0,1.75-1.43,3.18-3.18,3.18H8.19c-1.76,0-3.19-1.43-3.19-3.18v-7.32h4.46c.87,0,1.57-.7,1.57-1.56s-.7-1.57-1.57-1.57H5V16.72c0-1.76,1.43-3.19,3.18-3.19H48.44c-1.12,1.67-3.85,5.74-5.72,8.55-.64,.95-1.18,1.76-1.53,2.28-3.06,.03-6.12,1.1-8.12,3.43-2.72,3.18-3.2,8.18-1.42,14.85,.3,1.14,1.73,1.55,2.59,.73,4.04-3.86,9.07,.35,13.57-3.3,2.75-2.23,3.41-5.77,2.37-9.08,.71-.87,4.03-4.91,7.31-8.91,3.17-3.87,6.32-7.7,7.01-8.55h3.43c1.75,0,3.18,1.43,3.18,3.19v29.91Z"/>
        <path class="cls-1" d="M15.41,46.66c-.75,.15-1.26,.8-1.26,1.53,0,.98,.89,1.73,1.87,1.53,.87-.18,1.39-1.01,1.23-1.84-.17-.85-1-1.39-1.84-1.23h0Z"/>
      </g>
      <circle class="cls-2" cx="66.8" cy="73.11" r="1.95"/>
      <circle class="cls-2" cx="4.6" cy="73.26" r="4.6"/>
      <circle class="cls-2" cx="22.32" cy="2.4" r="2.4"/>
    </g>
  </g>
</svg>