<svg xmlns="http://www.w3.org/2000/svg" viewBox="0 0 87.18 76.98"><defs><style>.cls-1{fill:#55e6a5;}.cls-2{fill:#373f54;}</style></defs><g id="Layer_2" data-name="Layer 2"><g id="Layer_1-2" data-name="Layer 1"><path class="cls-1" d="M63.78,75.84H10.56A5.53,5.53,0,0,1,5,70.24v-4.9H57.83a5.9,5.9,0,0,1,6,6Z"/><path class="cls-1" d="M64.07,60.57H15.75a5.53,5.53,0,0,1-5.6-5.6V20.66H57.77a5.9,5.9,0,0,1,5.95,5.95l.35,34Z"/><path class="cls-2" d="M83.32,59.92h-4.9l.78-1.16A6.83,6.83,0,0,0,80.12,55V15.76a8.26,8.26,0,0,0-8.35-8.35H16.45A8.26,8.26,0,0,0,8.1,15.76V55.32a8.69,8.69,0,0,0,1,3.87l.54,1.08H4.9A1.64,1.64,0,0,0,3.2,62v6.65A8.27,8.27,0,0,0,11.55,77H77a8.26,8.26,0,0,0,8.35-8.36V62.05C85.08,60.7,84.34,59.92,83.32,59.92ZM11.5,16.11a5,5,0,0,1,4.95-4.95H71.77a5,5,0,0,1,5,4.95V55.32a5,5,0,0,1-5,5H16.35c-2.81-.4-4.85-2.48-4.85-4.94ZM81.62,68.27a5,5,0,0,1-5,5H11.2a5,5,0,0,1-4.95-5V63.32H81.62Z"/><path class="cls-2" d="M69.49,27.84l-.22-.22v-.11a1.59,1.59,0,0,0-.65-.15H45.55L45.13,24c-.53-1.52-1.42-1.52-1.72-1.52h-5.6a1.7,1.7,0,0,0,0,3.4H42l2.89,18.08c.53,1.53,1.43,1.53,1.72,1.53H48v3.2a1.7,1.7,0,1,0,3.4,0v-3.2H61v3.2a1.7,1.7,0,1,0,3.4,0v-3.2h1.45a1.81,1.81,0,0,0,1.72-1.53L70,29.35A1.82,1.82,0,0,0,69.49,27.84ZM64.72,42.07H48L46,30.76H66.33Z"/><path class="cls-2" d="M32.51,27.31a1.64,1.64,0,0,1-1.7,1.7H24.16a1.7,1.7,0,1,1,0-3.4h6.65A1.9,1.9,0,0,1,32.51,27.31Z"/><path class="cls-2" d="M32.51,37.11a1.65,1.65,0,0,1-1.7,1.71H19.25a1.71,1.71,0,0,1,0-3.41H30.81A1.65,1.65,0,0,1,32.51,37.11Z"/><path class="cls-2" d="M32.51,46.92a1.65,1.65,0,0,1-1.7,1.7H24.16a1.7,1.7,0,1,1,0-3.4h6.65A1.64,1.64,0,0,1,32.51,46.92Z"/><circle id="Ellipse_14" data-name="Ellipse 14" class="cls-1" cx="80.18" cy="3.5" r="3.5"/><circle id="Ellipse_14-2" data-name="Ellipse 14" class="cls-1" cx="85.08" cy="11.2" r="2.1"/><circle id="Ellipse_14-3" data-name="Ellipse 14" class="cls-1" cx="2.1" cy="53.22" r="2.1"/></g></g></svg>