<?xml version="1.0" encoding="UTF-8"?>
<svg id="Layer_2" data-name="Layer 2" xmlns="http://www.w3.org/2000/svg" viewBox="0 0 79.27 80">
  <defs>
    <style>
      .cls-1 {
        fill: #55e6a5;
      }

      .cls-2 {
        fill: #373f54;
      }
    </style>
  </defs>
  <g id="Layer_1-2" data-name="Layer 1">
    <g>
      <path class="cls-1" d="M20.7,33.67h51.72v35.74H15.17v-30.21c0-3.05,2.48-5.53,5.53-5.53Z"/>
      <g>
        <path class="cls-2" d="M58.98,49.81l-6.54,8.18c-.33,.43-.79,.62-1.28,.62-.36,0-.72-.13-1.01-.36-.72-.56-.82-1.6-.26-2.29l5.73-7.17-5.73-7.17c-.56-.69-.46-1.73,.26-2.29s1.73-.46,2.29,.26l6.54,8.18c.49,.59,.49,1.44,0,2.03h0Z"/>
        <path class="cls-2" d="M29.53,55.96c.56,.69,.46,1.73-.26,2.29-.29,.23-.65,.36-1.01,.36-.49,0-.95-.2-1.28-.62l-6.54-8.18c-.49-.59-.49-1.44,0-2.03l6.54-8.18c.56-.72,1.6-.82,2.29-.26,.72,.56,.82,1.6,.26,2.29l-5.73,7.17,5.73,7.17Z"/>
        <path class="cls-2" d="M46.12,38l-9.82,22.9c-.26,.62-.88,.98-1.51,.98-.23,0-.43-.03-.65-.13-.82-.36-1.21-1.31-.85-2.16l9.82-22.9c.36-.82,1.31-1.21,2.16-.85,.82,.36,1.21,1.31,.85,2.16h0Z"/>
        <circle class="cls-2" cx="28.25" cy="20.98" r="1.64"/>
        <circle class="cls-2" cx="21.71" cy="20.98" r="1.64"/>
        <circle class="cls-2" cx="15.17" cy="20.98" r="1.64"/>
        <path class="cls-2" d="M68.76,12.8H10.65c-3.83,0-6.94,3.11-6.94,6.94v45.02c0,3.83,3.11,6.94,6.94,6.94h58.11c3.83,0,6.94-3.11,6.94-6.94V19.74c0-3.83-3.11-6.94-6.94-6.94h0Zm3.66,51.96c0,2.03-1.64,3.66-3.66,3.66H10.65c-2.03,0-3.66-1.64-3.66-3.66V29.07h26.18c.2,0,.39-.03,.59-.1l7.89-3.08h30.79v38.87Zm0-42.14h-31.08c-.2,0-.39,.03-.59,.1l-7.89,3.08H6.99v-6.05c0-2.03,1.64-3.66,3.66-3.66h58.11c2.03,0,3.66,1.64,3.66,3.66v2.88Z"/>
      </g>
      <circle class="cls-1" cx="2.36" cy="77.64" r="2.36"/>
      <circle class="cls-1" cx="74.49" cy="4.78" r="4.78"/>
    </g>
  </g>
</svg>