<svg xmlns="http://www.w3.org/2000/svg" viewBox="0 0 403 354.92"><defs><style>.cls-1{fill:#fff;}.cls-2{fill:#373f54;}.cls-3{fill:#55e6a5;}.cls-4{fill:none;stroke:#fff;stroke-miterlimit:10;stroke-width:3px;}</style></defs><g id="Layer_2" data-name="Layer 2"><g id="Layer_1-2" data-name="Layer 1"><path class="cls-1" d="M109.73,296.34h19c3.28,8.41,3.39,17.54,7.76,25.83l6-25.5c6.66-1.06,13.18-.45,20-.34l7.68,55.78,2,.09c2.44-18.43,4.87-36.86,7.33-55.5,6.26-1.14,12.36-.42,18.73-.45,3.87,8.53,3.49,18.19,7.52,28.05,2.37-10,4.42-18.75,6.54-27.76H232.2c2.53,18.72,5.06,37.41,7.65,56.56H224.67c-1.27-11.47-2.53-22.81-3.8-34.15l-1.2-.26c-2.84,11.32-5.67,22.64-8.57,34.22-3.3,1-6.67.63-10.41.26l-9-34.62-1.23.08c-1.22,11.28-2.43,22.56-3.73,34.63-10.18.63-20.48-.59-31.23.56C153,342.39,153.22,331,151.18,320l-1.61-.1c-2.68,10.9-5.37,21.79-8,32.6-3.21,1.92-6.47.38-10,1.26-4.13-11.25-5.7-22.89-10.07-34-2.31,5.23-1.52,11.05-2.68,16.48s-.14,11.24-2.22,16.88a64.89,64.89,0,0,1-14.05.11C104.93,334.06,107.31,315.37,109.73,296.34Z"/><path class="cls-1" d="M101.29,324.35c-.28,3-.44,5.92-.87,8.83-2,13.39-10.86,21.51-23.65,21.73-13.23.23-22.46-7.83-24.68-21.49a54.21,54.21,0,0,1,0-18.37c2.22-12.43,10.78-20,23.13-20.41,12.72-.38,22.29,7,24.9,19.37C100.83,317.4,100.92,320.91,101.29,324.35ZM71.66,309.16c-7,12.14-4.93,28.63,3.84,32.65,4.76-.21,7.39-3,8.25-7.33a46.24,46.24,0,0,0,0-19.07C82.34,308.84,79.28,307.43,71.66,309.16Z"/><path class="cls-1" d="M322.23,315.05c-2.66,4.65-4.3,10-10,12.66,4,8.56,7.81,16.69,11.88,25.39h-16c-3.33-6.7-6.84-13.73-11.05-22.19-3.26,8.21-.63,15.4-2.23,22.29a67.91,67.91,0,0,1-14.46-.07V296.26c6.62,0,13-.35,19.27.07,14.5,1,19.25,5.17,22.36,19Zm-18.69-5.46c-2.41-1.19-4.92-3.15-8.27-1.4.11,4.33-.59,8.27.47,12.17,3.26.31,6-.14,8.36-2.3C305.86,315.27,305.44,312.59,303.54,309.59Z"/><path class="cls-1" d="M273.24,320a34.18,34.18,0,0,1-.17,10.31c-4.27,1.37-8.33.15-12.58.92-1.54,2.81-.63,5.92-.61,9.81H275c1,4.43.56,8,.45,12.09H244.61V296.69h30.52c.73,4,.47,7.61.28,11.7h-14.9c-1.37,3.44-.65,6.53-.75,9.65C264.24,320.22,269.12,317.49,273.24,320Z"/><path class="cls-1" d="M365.94,296.43h29.84V308c-4.62,1.43-9.75-.11-15.11,1a26.89,26.89,0,0,0,0,9.17c4.2,1.48,8.3,0,12.56,1.15,1.82,3.32.69,7,.74,10.9-4.29,1.59-8.66.07-13,1.1-1.35,3-.17,6.09-.78,9.65h15.3c1.61,4.27.42,8.12.9,12.26H366.13C364.76,347.18,364.58,304.5,365.94,296.43Z"/><path class="cls-1" d="M47.92,353c-13.39,4-25.4.23-32.81-9.74-7.2-9.69-7.76-25.56-1.26-35.56C20.71,297.14,32.41,293,47.18,296c1.42,1.78.61,4,.69,6s.45,4.27-.53,6.3c-16.5.5-21.92,4.91-21.4,17.39.49,11.54,6.17,15.67,20.57,14.86,2.44,1.32,1.18,3.72,1.36,5.65C48.08,348.36,47.92,350.51,47.92,353Z"/><path class="cls-1" d="M322,315.31c.46-.18,1.17-.24,1.33-.57,8.26-17,18.59-22.28,37-18.73.93,4,.45,8.19.35,12.86-6.24-.09-12.62-2.07-17.49,3.26a17.76,17.76,0,0,0-4.7,12.39c-.07,11.91,5.69,16.28,22,16.4v11.77a27.92,27.92,0,0,1-38.09-24.1c-.38-4.48-.1-9-.13-13.54Z"/><path class="cls-2" d="M107.19,291.27h19c3.28,8.41,3.39,17.54,7.76,25.83l6-25.5c6.66-1.06,13.18-.45,20-.34L167.62,347l2,.09c2.43-18.43,4.87-36.86,7.32-55.5,6.27-1.14,12.37-.42,18.74-.45,3.87,8.53,3.49,18.19,7.52,28.05,2.37-10,4.42-18.75,6.54-27.76h19.91c2.53,18.72,5.06,37.41,7.65,56.56H222.13c-1.27-11.47-2.54-22.81-3.8-34.15l-1.2-.26c-2.84,11.32-5.67,22.64-8.58,34.22-3.29,1.05-6.66.63-10.41.26-3-11.61-6-23.12-9-34.62l-1.23.09c-1.22,11.27-2.43,22.55-3.73,34.62-10.19.63-20.48-.59-31.23.56-2.53-11.43-2.28-22.81-4.32-33.8l-1.61-.09c-2.68,10.89-5.37,21.79-8,32.59-3.22,1.92-6.47.38-10,1.26-4.13-11.25-5.7-22.89-10.07-34-2.31,5.23-1.53,11.05-2.68,16.48s-.14,11.24-2.22,16.88a64.89,64.89,0,0,1-14,.11C102.39,329,104.77,310.3,107.19,291.27Z"/><path class="cls-2" d="M98.75,319.28c-.29,3-.44,5.92-.87,8.83-2,13.39-10.86,21.51-23.65,21.73C61,350.07,51.77,342,49.55,328.35a54.21,54.21,0,0,1,0-18.37c2.22-12.43,10.78-20,23.12-20.41,12.73-.38,22.3,7,24.91,19.37C98.29,312.33,98.38,315.85,98.75,319.28ZM69.12,304.09c-7.06,12.14-4.93,28.63,3.84,32.65,4.76-.21,7.39-3,8.25-7.33a46.24,46.24,0,0,0,.05-19.07C79.8,303.77,76.74,302.36,69.12,304.09Z"/><path class="cls-2" d="M319.69,310c-2.67,4.65-4.3,10-10,12.66,4,8.56,7.81,16.69,11.88,25.39h-16l-11.05-22.19c-3.26,8.21-.64,15.4-2.23,22.29a67.91,67.91,0,0,1-14.46-.07V291.19c6.62,0,13-.35,19.27.07,14.5,1,19.25,5.17,22.36,19ZM301,304.53c-2.41-1.2-4.92-3.16-8.27-1.41.11,4.33-.59,8.27.46,12.17,3.27.31,6-.14,8.37-2.3C303.32,310.2,302.9,307.52,301,304.53Z"/><path class="cls-2" d="M270.7,314.93a34.18,34.18,0,0,1-.17,10.31c-4.27,1.37-8.33.16-12.58.92-1.54,2.81-.64,5.92-.61,9.81h15.15c1,4.43.56,8,.45,12.09H242.07V291.62h30.52c.73,4,.47,7.61.28,11.7H258c-1.37,3.44-.66,6.53-.75,9.65C261.7,315.15,266.58,312.42,270.7,314.93Z"/><path class="cls-2" d="M363.4,291.36h29.84V302.9c-4.62,1.43-9.75-.11-15.11,1a26.89,26.89,0,0,0,0,9.17c4.2,1.48,8.3,0,12.56,1.15,1.82,3.32.69,7,.74,10.9-4.3,1.59-8.67.07-13,1.1-1.35,3-.17,6.09-.78,9.65h15.3c1.61,4.27.42,8.12.9,12.26H363.59C362.22,342.11,362,299.43,363.4,291.36Z"/><path class="cls-2" d="M45.38,347.93c-13.39,4-25.4.23-32.81-9.74-7.2-9.69-7.76-25.56-1.26-35.56,6.86-10.56,18.56-14.69,33.33-11.66,1.42,1.78.61,4,.69,6s.45,4.27-.53,6.3c-16.5.5-21.92,4.91-21.4,17.39.49,11.54,6.17,15.67,20.57,14.86,2.44,1.32,1.18,3.72,1.36,5.65C45.54,343.3,45.38,345.44,45.38,347.93Z"/><path class="cls-2" d="M319.45,310.24c.45-.18,1.17-.24,1.33-.57,8.26-17,18.59-22.28,37-18.73.93,4,.45,8.19.35,12.86-6.24-.09-12.62-2.06-17.49,3.26a17.73,17.73,0,0,0-4.7,12.39c-.07,11.91,5.69,16.28,22,16.4v11.77a27.92,27.92,0,0,1-38.09-24.1c-.38-4.48-.1-9-.13-13.54Z"/><path class="cls-3" d="M90,75.66a29.64,29.64,0,0,0-29.65,29.65V225.94H188.57l56,32.88-4.37-32.88H348.36a29.77,29.77,0,0,0,29.78-29.77V75.66Z"/><path class="cls-4" d="M394,88l0-3.44c-.07-16.39-8.55-28.76-25.21-36.76C361,44,353.16,44,346.15,44h-.08L57.83,44H55.38c-1.74,0-3.54,0-5.36.11C26.79,45.64,9.68,62.82,9.35,85c-.57,38.06-.57,78,0,118.56.29,20.26,13.75,35.66,35.12,40.19a88,88,0,0,0,19,1.66h40c29.66,0,54.37,0,79.95-.12h.26a31.21,31.21,0,0,1,17,4.5c13.41,8.09,27.39,15.52,40.93,22.72l2.37,1.26c.12.07.23.16.36.25l.28.22c1.46,1.05,4.87,3.52,9.38,3.52a13.18,13.18,0,0,0,8.75-3.51l4.23-3.66-1.58-5.38a96.78,96.78,0,0,0-4.94-12.56c-1.13-2.5-2.21-4.92-3.11-7.31l.54,0,2.06,0,1.32,0c26.86-.07,53.13-.12,79.39,0a99.07,99.07,0,0,0,20.49-2.09c19.38-4.22,32.55-19.86,32.77-38.91C394.37,165.33,394.19,126,394,88ZM243.31,229.86l-6.12,2.46.7,6.56a52.09,52.09,0,0,0,3.6,13.78c-10.34-5.53-21.4-11.55-31.81-17.84a48.37,48.37,0,0,0-26.05-7h-.32c-26.69.14-53,.13-79.87.11h-40a71,71,0,0,1-15.35-1.27c-13.17-2.8-21.14-11.54-21.3-23.38-.57-40.43-.57-80.15,0-118.06C27,72.19,37,62.44,51.18,61.51c1.57-.11,3.23-.09,4.87-.08h290c5.56,0,10.81,0,15.16,2,10.56,5.07,15.28,11.58,15.33,21.12V88c.17,38,.34,77.31-.12,116.18-.12,10.76-7.77,19.63-19,22.08a80.12,80.12,0,0,1-16.71,1.7c-26.5-.16-52.73-.11-79.6,0-.59,0-1.37,0-2.13,0l-.54,0C254.26,227.74,249.05,227.56,243.31,229.86Z"/><path class="cls-2" d="M385.1,77.52V74.09c-.07-16.4-8.56-28.77-25.21-36.77-7.81-3.74-15.64-3.76-22.66-3.76h-.08l-288.23,0H46.45c-1.73,0-3.53,0-5.35.11C17.86,35.21.76,52.39.43,74.53c-.57,38.06-.57,77.95,0,118.57.28,20.25,13.74,35.65,35.12,40.18a88,88,0,0,0,19,1.66h40c29.65,0,54.37,0,80-.12h.26a31.24,31.24,0,0,1,17,4.5c13.41,8.09,27.39,15.52,40.93,22.72L235,263.3a2.7,2.7,0,0,1,.36.26l.29.21c1.46,1.05,4.87,3.52,9.38,3.52a13.18,13.18,0,0,0,8.75-3.51l4.22-3.66-1.57-5.37a96.36,96.36,0,0,0-4.94-12.57c-1.13-2.5-2.22-4.92-3.11-7.31l.54,0,2,0,1.33,0c26.85-.07,53.13-.12,79.39,0a99.12,99.12,0,0,0,20.49-2.1C371.59,228.67,384.76,213,385,194,385.44,154.9,385.27,115.56,385.1,77.52ZM234.39,219.43l-6.13,2.46.71,6.56a52.09,52.09,0,0,0,3.59,13.78c-10.33-5.53-21.39-11.55-31.81-17.84a48.33,48.33,0,0,0-26-7h-.32c-26.69.14-53,.13-79.87.11h-40a70.45,70.45,0,0,1-15.36-1.27C26,213.43,18,204.69,17.87,192.85c-.57-40.43-.58-80.15,0-118.06.2-13,10.22-22.78,24.4-23.71C43.83,51,45.49,51,47.13,51h290c5.55,0,10.8,0,15.16,2,10.55,5.07,15.28,11.58,15.32,21.12l0,3.43c.16,38,.34,77.31-.12,116.18-.13,10.76-7.78,19.63-19,22.08a79.29,79.29,0,0,1-16.7,1.7c-26.5-.16-52.74-.11-79.6,0-.59,0-1.37,0-2.13,0l-.54,0C245.34,217.31,240.13,217.13,234.39,219.43Z"/><path class="cls-1" d="M185.74,98.74c4.66-11.9-.79-17.8-15.42-15.81-14.15,20.54-14.95,45.83-20.13,70.8-8.81-16.69-7.32-35.26-16-49.27-9.87-3.26-13.67,2.3-16.81,8.12-6.74,12.47-13.06,25.16-19.63,37.72-1.91,3.64-3.28,7.76-7.21,10.45C84.6,139.31,81.76,118,78,97c-1.18-6.55-4.1-10.62-11.09-10.21a11,11,0,0,0-9.86,13c5.22,31.91,9.87,64,20.49,94.71,1.35,3.9,3.13,7.5,7.29,9,2.18.45,4.43.47,6-.82,16.73-14,20.36-36.22,33.82-54.77,1.9,5.38,3,8.82,4.31,12.19,5.24,13.7,11.82,26.61,21.64,37.73,4.81,5.44,9.95,8.22,16.61,4.28,4.47-4.71,3-10.21,3.18-15.36C171.37,156.68,174.66,127.06,185.74,98.74Z"/><path class="cls-1" d="M235.77,97.2c-11.52-3.6-22.51-2-31.86,6.28C187,118.42,180.31,151.66,190,172c10.55,22.27,38.56,25.5,53.9,6,9.55-12.14,14.74-26,14.46-41.63-.18-3.65.14-7.4-.63-10.91C254.88,112.67,249.38,101.47,235.77,97.2ZM217.3,168.81c-10.56-7.2-13.43-19.19-8.15-34,4.86-13.64,9.76-17.51,20.84-16.47C243.5,136.1,237,162.06,217.3,168.81Z"/><path class="cls-1" d="M281.11,106.19c-11.16,12.18-15.85,27.05-15.46,43.48,0,3.24-.36,6.53.06,9.71,2.08,15.71,11.73,27.11,25.66,30.66,12.56,3.19,25.91-2.06,34.54-15,11.56-17.3,15.93-36.33,9.63-56.69C328,93.92,298.42,87.29,281.11,106.19Zm16.94,62.69c-10.64-5.79-14.32-17.78-9.94-32.42,4-13.28,10.47-18.88,21.91-18.3C322.34,137.81,316.9,159.83,298.05,168.88Z"/><path class="cls-2" d="M180.74,94.16c4.66-11.9-.79-17.81-15.42-15.81-14.15,20.53-15,45.82-20.13,70.8-8.82-16.69-7.32-35.27-16-49.28-9.87-3.26-13.67,2.3-16.81,8.12-6.74,12.47-13.06,25.17-19.63,37.73-1.91,3.64-3.28,7.75-7.21,10.44C79.6,134.72,76.76,113.46,73,92.38c-1.18-6.55-4.1-10.61-11.1-10.21a11,11,0,0,0-9.85,13c5.21,31.9,9.87,64,20.49,94.7,1.35,3.9,3.12,7.5,7.28,9,2.19.44,4.44.47,6-.83,16.72-14,20.36-36.21,33.82-54.77,1.9,5.39,3,8.82,4.31,12.19,5.24,13.7,11.82,26.62,21.64,37.73,4.81,5.45,9.94,8.22,16.61,4.28,4.46-4.7,3-10.21,3.18-15.36C166.37,152.1,169.66,122.47,180.74,94.16Z"/><path class="cls-2" d="M230.77,92.62c-11.52-3.61-22.51-2-31.86,6.28C182,113.84,175.31,147.07,185,167.45c10.55,22.28,38.56,25.5,53.9,6,9.54-12.13,14.74-26,14.46-41.63-.18-3.64.14-7.39-.63-10.91C249.88,108.08,244.38,96.88,230.77,92.62ZM212.3,164.23c-10.56-7.21-13.44-19.19-8.16-34,4.87-13.65,9.76-17.52,20.85-16.48C238.49,131.51,232,157.48,212.3,164.23Z"/><path class="cls-2" d="M276.11,101.6c-11.16,12.18-15.85,27.06-15.46,43.48,0,3.24-.37,6.53.06,9.72,2.08,15.71,11.73,27.11,25.66,30.65,12.55,3.19,25.9-2,34.54-15,11.56-17.29,15.92-36.33,9.63-56.68C323,89.34,293.42,82.71,276.11,101.6Zm16.94,62.7c-10.64-5.79-14.32-17.78-9.95-32.43,4-13.28,10.47-18.87,21.92-18.3C317.34,133.23,311.9,155.25,293.05,164.3Z"/><circle class="cls-3" cx="382.89" cy="260.95" r="12.05"/><circle class="cls-3" cx="395.91" cy="235.75" r="7.09"/><circle class="cls-3" cx="14.73" cy="243.49" r="5.41"/><circle class="cls-3" cx="157.18" cy="11.45" r="11.45"/><circle class="cls-3" cx="37.62" cy="260.38" r="11.48"/></g></g></svg>